<svg width="715" height="588" viewBox="0 0 715 588" fill="none" xmlns="http://www.w3.org/2000/svg">
<path d="M127.86 326.996C127.631 326.62 107.164 289.772 92.7024 264.967C92.3704 264.118 91.7195 263.433 90.889 263.059C90.0585 262.684 89.1143 262.649 88.2583 262.961C61.3717 267.973 38.2368 272.18 3.39905 278.924C14.1913 304.553 5.28054 285.479 32.4945 343.982C32.8972 344.994 33.2998 345.8 34.7147 345.397C45.0215 343.376 55.3284 341.792 65.6277 339.753C82.6101 336.339 124.018 328.004 127.86 326.996Z" fill="#00DF9C"/>
<path d="M266.662 170.817C265.857 170.817 264.637 169.402 264.442 168.39C263.189 161.932 240.769 39.8984 240.197 37.8701C239.339 34.8597 240.596 32.9782 243.832 32.6019C255.121 31.2886 417.588 13.7869 426.886 12.801C428.903 12.5903 430.149 12.9929 430.725 15.2244C432.437 21.8699 459.79 136.863 462.04 146.756C462.19 147.347 462.205 147.964 462.084 148.562C461.963 149.159 461.708 149.721 461.339 150.207C460.97 150.692 460.496 151.088 459.953 151.365C459.41 151.642 458.812 151.793 458.202 151.806C450.119 152.427 269.492 171.016 266.662 170.817Z" fill="white"/>
<path d="M131.292 360.938C130.396 354.677 128.142 349.928 133.719 348.212C137.998 346.891 137.96 346.996 137.96 339.726C137.555 331.768 140.069 323.936 145.031 317.701C148.285 312.971 152.44 308.93 157.26 305.81C162.079 302.69 167.467 300.552 173.114 299.519C182.326 297.577 184.651 296.358 209.28 299.315C217.935 300.354 241.89 305.201 252.931 305.378C266.515 305.596 278.478 300.817 274.339 287.797C268.671 269.874 252.028 262.336 234.131 251.025C225.149 245.347 217.732 240.255 224.23 230.618C227.307 226.367 231.408 222.962 236.152 220.718C249.345 213.801 248.78 214.656 255.343 213.643C255.343 213.241 255.343 212.432 255.746 212.232C258.38 210.211 257.533 207.792 256.957 205.361C255.992 199.925 256.199 194.346 257.563 188.996C257.968 187.522 258.833 186.215 260.033 185.268C261.232 184.32 262.703 183.78 264.231 183.728C272.935 183.05 462.865 163.136 470.932 162.113C473.927 161.613 476.997 161.808 479.905 162.684C482.812 163.56 485.48 165.092 487.7 167.163C505.845 183.137 540.175 209.816 558.012 224.545C559.74 225.655 561.042 227.318 561.702 229.264C562.363 231.209 562.345 233.321 561.651 235.254C560.796 237.749 560.04 246.329 549.323 247.578C516.792 251.371 383.48 264.692 338.595 270.005C314.983 272.798 290.26 256.575 274.952 238.686C269.952 233.22 265.611 227.185 262.018 220.706C261.616 219.495 258.97 219.675 258.383 219.088C256.969 216.864 255.151 217.674 253.333 218.279C243.607 220.624 234.807 225.833 228.073 233.233C220.599 242.336 236.016 246.438 256.359 260.105C267.497 267.586 279.648 280.993 279.392 293.844C279.225 296.708 278.293 299.475 276.694 301.857C275.095 304.24 272.888 306.15 270.301 307.391C248.938 316.836 211.497 301.261 185.442 302.947C169.261 303.989 155.831 310.269 147.458 324.772C143.974 330.547 142.286 337.227 142.607 343.963C142.607 345.581 143.01 346.793 145.031 347.196C148.873 347.602 149.516 350.823 150.299 353.864C151.368 358.093 151.319 358.003 155.567 357.503C215.218 350.534 191.316 352.295 210.725 350.428C213.536 350.381 216.302 351.134 218.701 352.6C221.1 354.066 223.032 356.184 224.272 358.707C233.198 378.203 265.638 442.467 266.5 453.06C266.899 455.385 266.386 457.774 265.068 459.731C263.751 461.687 261.73 463.061 259.426 463.566C251.815 466.792 243.894 469.23 235.787 470.84C235.343 470.946 156.64 487.439 144.463 488.62C140.82 488.974 128.097 489.633 122.844 486.803C110.291 482.878 100.88 460.545 95.57 448.42C72.3147 395.313 72.691 393.857 71.7277 383.162C71.4451 380.689 72.0964 378.199 73.554 376.18C75.0116 374.161 77.1703 372.76 79.6074 372.25C91.9123 369.142 104.24 366.522 116.583 363.764C124.474 361.996 130.558 361.676 131.292 360.938ZM82.5989 398.722C82.2296 398.787 81.88 398.936 81.5768 399.156C81.2736 399.377 81.0248 399.664 80.8495 399.995C80.6741 400.327 80.5768 400.694 80.565 401.069C80.5533 401.444 80.6273 401.816 80.7814 402.158C87.0769 416.375 114.524 473.681 115.736 475.296C117.241 476.801 257.172 449.116 257.571 449.03C257.995 448.939 258.393 448.755 258.736 448.489C259.079 448.224 259.358 447.885 259.552 447.497C259.746 447.109 259.85 446.683 259.857 446.249C259.864 445.815 259.773 445.386 259.591 444.992C252.923 431.144 228.475 378.922 226.477 374.88C226.233 374.526 225.897 374.245 225.505 374.067C225.113 373.89 224.68 373.822 224.253 373.872C208.486 376.498 103.611 394.884 82.5989 398.722ZM267.471 220.315C271.657 228.181 276.966 235.397 283.23 241.734C302.663 260.173 324.676 266.72 331.72 266.194C338.181 265.701 532.766 244.65 546.9 242.961C549.216 242.849 551.423 241.945 553.152 240.401C554.881 238.856 556.027 236.764 556.398 234.475C556.721 233.255 556.704 231.969 556.348 230.757C555.991 229.546 555.31 228.455 554.377 227.604C530.835 208.131 507.242 188.273 483.862 168.608C482.701 167.479 481.294 166.636 479.751 166.145C478.209 165.654 476.573 165.529 474.974 165.778C460.866 167.859 285.868 186.497 265.857 188.612C258.959 189.338 260.754 191.19 262.421 208.006C262.602 209.828 263.633 210.43 265.432 210.43C267.373 210.401 269.276 210.966 270.888 212.048C272.394 213.649 273.501 215.583 274.12 217.692C274.929 219.31 274.12 220.326 272.303 220.326C270.698 220.524 269.075 220.521 267.471 220.315Z" fill="white"/>
<path d="M531.351 80.2977C529.533 74.2355 527.915 68.3765 525.895 62.7208C525.196 53.7902 525.809 44.8056 527.712 36.0524C530.723 34.5472 534.704 43.1607 540.04 48.7789C544.269 53.2342 544.886 58.8825 546.505 64.1356C547.314 66.7697 548.119 69.1856 548.928 71.8121C549.038 71.8248 549.149 71.8132 549.253 71.778C549.358 71.7429 549.454 71.6852 549.534 71.609C549.131 68.9749 547.513 42.9199 547.513 33.2264C547.513 27.2056 552.062 20.9854 557.82 23.7286C563.34 26.3627 563.803 31.883 564.687 38.0731C568.932 37.6705 569.463 38.0731 570.332 42.3178C571.199 46.7208 571.199 51.2508 570.332 55.6539C569.914 57.3171 569.372 58.002 568.311 57.4714C567.905 52.2032 566.693 41.5088 566.49 41.5088C566.125 42.9037 565.856 44.3219 565.685 45.7534C566.292 55.2487 567.099 64.744 568.108 74.2393C568.108 74.8037 568.657 77.705 570.332 76.8734C572.922 61.7368 576.365 46.7588 580.646 32.011C581.662 28.0561 584.484 24.3533 588.526 25.7456C589.605 26.4514 590.451 27.4621 590.954 28.6494C591.458 29.8366 591.598 31.1468 591.356 32.4136C591.356 32.8162 591.152 33.0194 591.152 33.4258C592.165 33.8052 593.027 34.5023 593.609 35.4127C594.192 36.3231 594.464 37.3978 594.385 38.4758C594.486 43.1268 594.486 47.5634 594.385 52.2145C594.347 52.7094 594.13 53.1736 593.775 53.5201C593.419 53.8665 592.949 54.0714 592.454 54.0963C591.958 54.1213 591.47 53.9645 591.082 53.6555C590.693 53.3465 590.431 52.9064 590.343 52.4177C590.253 50.922 590.051 49.4352 589.738 47.9698C579.122 101.051 586.69 75.2929 599.435 48.5757C600.559 46.6032 601.916 44.7726 603.476 43.1231C605.029 40.81 606.792 38.6458 608.744 36.6583C609.04 36.1539 609.45 35.7263 609.942 35.4099C610.434 35.0935 610.993 34.8972 611.574 34.837C613.392 34.837 613.621 36.0487 613.794 37.8699C614.28 42.9124 615.01 47.7704 615.616 52.8203C615.951 54.5061 615.379 55.2324 604.3 79.6919C603.48 81.5056 604.3 82.4915 605.715 83.3307C607.352 84.3091 609.151 85.3514 610.765 86.1567C612.019 86.8029 613.019 87.8516 613.605 89.1346C614.192 90.4175 614.33 91.8603 613.998 93.2311C612.41 103.369 599.092 176.849 597.632 185.966C594.069 208.194 561.59 203.999 539.645 199.302C528.623 196.947 529.398 190.271 526.715 178.696C525.262 172.438 508.69 101.875 505.906 91.8162C503.313 82.5292 521.842 79.7859 531.351 80.2977ZM607.74 95.4513C575.412 102.323 543.487 102.928 511.968 91.8162C520.72 135.569 524.837 147.482 535.407 187.773C536.717 192.774 539.885 192.134 541.669 193.041C566.012 195.675 575.48 198.685 586.321 193.647C587.84 193.1 589.185 192.155 590.216 190.911C591.246 189.668 591.925 188.171 592.18 186.576C607.017 107.173 602.472 125.913 607.717 95.4513H607.74ZM530.354 61.7085C531.95 71.6157 534.653 81.3123 538.414 90.6158C538.636 91.1034 538.986 91.522 539.426 91.8275C543.061 92.4333 546.696 92.836 550.538 93.2424C549.929 90.8002 540.555 60.8807 540.435 60.5044C538.617 55.8495 529.526 60.7 530.331 61.7085H530.354ZM606.122 55.8495C605.113 56.0527 604.097 56.8844 603.092 56.6586C602.28 56.478 601.678 55.2437 600.868 54.2352C595.412 66.9617 588.748 79.071 583.897 92.4221C587.532 92.0157 590.565 91.613 593.595 91.2104C595.066 91.2104 595.247 90.3223 607.939 60.7C608.609 59.319 607.224 57.7273 606.099 55.8495H606.122ZM576.827 53.0235C573.997 66.9466 571.559 79.8951 568.744 93.4306C571.574 93.2311 573.391 93.0279 575.412 93.0279C578.761 93.0279 576.857 93.1144 585.512 55.2437C582.46 54.4384 579.63 53.8288 576.804 53.0235H576.827ZM564.702 93.4306C563.427 75.5864 562.55 67.3191 562.068 59.0819C561.812 54.6416 561.259 53.8137 556.612 54.2352C555.383 54.5045 554.169 54.8412 552.977 55.2437C554.189 67.9739 555.4 80.7041 556.412 93.4306H564.702ZM561.067 49.4035C560.258 43.1419 559.487 36.4663 558.238 30.009C557.455 25.9638 553.387 27.9883 552.781 28.9968C551.978 30.1139 551.553 31.459 551.569 32.8351C551.893 46.4044 552.781 47.6838 552.781 51.221C555.588 50.5964 558.012 49.9755 561.045 49.3847L561.067 49.4035ZM536.213 52.8391C532.374 46.9801 532.374 46.9801 529.748 47.7892C528.536 56.8806 527.727 55.4657 530.354 55.4657C532.489 55.0837 534.495 54.1744 536.19 52.8203L536.213 52.8391ZM604.91 50.8184C607.74 49.2041 607.74 49.2041 610.554 53.2418H611.16C610.962 50.6152 610.76 47.9886 610.554 45.3621C609.497 44.9635 608.418 44.6267 607.322 44.3536C603.473 48.5757 603.472 48.5757 604.887 50.7996L604.91 50.8184Z" fill="white"/>
<path d="M24.005 555.913C22.0617 556.188 20.0894 556.188 18.146 555.913C17.7807 555.83 17.4418 555.657 17.16 555.41C16.8781 555.163 16.6622 554.85 16.5317 554.498C16.3285 554.096 17.1376 553.287 17.5402 552.681C18.2452 551.964 19.0997 551.411 20.0428 551.062C20.9859 550.712 21.9944 550.575 22.9965 550.66C58.4289 544.015 633.896 438.899 698.029 426.402C703.967 425.243 707.579 431.001 702.879 432.047C698.706 432.999 24.3813 555.846 24.005 555.913Z" fill="white"/>
<path d="M711.162 448.83C711.864 448.558 712.642 448.552 713.348 448.813C714.055 449.073 714.642 449.582 715 450.245C714.597 452.465 712.78 452.879 710.962 453.477C481.796 508.376 50.1806 587.636 29.4615 587.636C29.4615 578.992 166.07 568.14 711.162 448.83Z" fill="white"/>
<path d="M124.018 236.277C118.374 241.128 102.419 238.671 96.7439 235.066C92.8525 232.592 89.6706 229.15 87.5101 225.077C85.3497 221.003 84.2849 216.438 84.4201 211.829C83.8369 192.299 100.417 185.819 110.885 194.655C111.694 195.261 112.503 196.07 113.109 194.655C114.717 191.564 117.076 188.926 119.969 186.985C122.862 185.043 126.197 183.859 129.666 183.543C150.024 180.028 160.35 177.917 190.887 183.746C199.993 185.484 204.81 193.24 204.019 203.14C202.736 217.426 197.086 230.97 187.838 241.933C184.545 246.063 179.772 248.747 174.533 249.414C165.242 250.844 155.815 251.183 146.446 250.422C134.968 249.467 127.853 239.562 124.018 236.277ZM115.939 200.314C115.3 207.58 116.552 214.888 119.574 221.526C123.572 229.609 129.298 236.714 136.346 242.339C138.9 244.668 142.191 246.026 145.644 246.178C156.654 247.031 167.729 246.42 178.578 244.36C179.677 244.038 180.659 243.405 181.408 242.539C192.245 231.359 201.016 214.294 200.399 198.294C200.049 189.232 190.582 186.482 181.611 185.161C161.607 182.211 117.888 180.227 115.939 200.314ZM149.275 185.966C182.235 182.579 203.361 192.83 194.736 196.675C179.368 203.528 153.719 207.479 124.425 199.908C121.388 199.125 116.327 195.016 123.01 191.219C127.646 188.578 143.616 186.546 149.275 185.966ZM111.292 201.929C111.54 200.684 111.325 199.391 110.686 198.294C109.393 196.707 107.702 195.494 105.785 194.778C103.869 194.062 101.796 193.868 99.7802 194.218C97.7643 194.568 95.8778 195.448 94.3146 196.768C92.7513 198.088 91.5676 199.8 90.885 201.729C89.5927 204.736 88.9474 207.981 88.991 211.253C89.0346 214.525 89.7662 217.752 91.1382 220.723C92.5102 223.694 94.4919 226.343 96.9546 228.499C99.4173 230.654 102.306 232.267 105.433 233.233C110.777 235.358 116.677 235.641 122.201 234.038C121.192 232.623 120.18 231.404 119.371 230.2C107.589 234.392 84.819 212.461 99.5737 202.117C101.229 200.79 103.279 200.052 105.401 200.018C107.522 199.984 109.594 200.656 111.292 201.929ZM118.362 228.8C114.216 222.186 111.914 214.583 111.694 206.779C111.369 205.971 110.867 205.245 110.225 204.657C109.582 204.068 108.816 203.631 107.982 203.379C107.148 203.126 106.268 203.063 105.406 203.196C104.545 203.329 103.725 203.653 103.006 204.145C91.8332 210.346 105.7 228.8 118.362 228.8ZM147.051 192.435C141.407 189.605 131.292 190.613 128.06 195.667C134.524 194.474 140.376 193.443 147.051 192.435Z" fill="white"/>
<path d="M253.935 180.514C254.744 188.999 250.327 181.721 250.097 180.31C248.837 172.608 224.983 48.1804 224.031 41.5048C223.114 37.2435 223.534 32.8032 225.234 28.7895C226.934 24.7758 229.83 21.3842 233.529 19.0774C235.671 17.979 238 17.2935 240.396 17.0566C245.638 16.1799 414.969 0.367759 422.239 0.0855343C444.915 -0.795006 442.811 2.2154 475.779 156.065C475.779 160.31 472.592 158.884 472.144 157.074C471.591 154.839 470.676 152.645 470.123 150.41C440.824 31.9506 441.208 16.8008 438.604 12.0067C437.583 9.63318 435.847 7.63724 433.638 6.29699C431.429 4.95674 428.857 4.33892 426.28 4.52963C420.218 4.94356 239.775 21.4631 236.761 23.322C229.709 27.6382 229.611 33.8057 228.678 39.4841C228.881 39.6873 251.915 168.796 253.935 180.514Z" fill="white"/>
<path d="M109.674 334.672C105.045 335.579 87.8482 339.285 83.8142 340.128C77.5263 341.442 62.2673 343.684 36.1296 349.423C35.1089 349.729 34.0366 349.825 32.9778 349.705C31.9189 349.585 30.8955 349.25 29.9697 348.722C29.0439 348.195 28.235 347.484 27.592 346.634C26.949 345.785 26.4853 344.813 26.2292 343.779C-1.28586 278.423 -0.360159 280.368 0.16666 276.684C0.16666 275.435 -0.905788 276.003 73.5074 261.734C78.7756 260.729 84.025 259.762 89.2668 258.502C91.6977 257.918 92.9056 259.311 93.9141 261.136C118.976 306.246 108.718 289.734 127.454 320.132C129.072 322.766 130.317 325.362 131.898 327.812C132.933 329.411 132.097 330.623 130.487 331.045C129.087 331.402 115.54 333.524 109.674 334.672ZM127.86 326.996C127.631 326.619 107.164 289.772 92.7024 264.966C92.3704 264.118 91.7195 263.433 90.889 263.058C90.0585 262.683 89.1143 262.648 88.2583 262.961C61.3718 267.973 38.2369 272.18 3.39907 278.923C14.1913 304.553 5.28057 285.478 32.4945 343.982C32.8972 344.994 33.2998 345.799 34.7147 345.397C45.0215 343.376 55.3284 341.792 65.6277 339.752C82.6101 336.339 124.018 328.004 127.86 326.996Z" fill="white"/>
<path d="M12.0879 162.113C7.74166 162.982 5.66825 157.15 10.0672 156.051C15.7117 155.373 225.363 137.01 232.114 136.453C234.94 136.22 235.952 136.653 236.155 138.673C236.359 140.694 235.749 141.706 233.521 141.706C225.954 141.721 13.2808 162.113 12.0879 162.113Z" fill="white"/>
<path d="M641.659 268.199C630.156 265.064 636.606 268.172 606.908 257.087C599.078 253.791 591.735 249.441 585.083 244.157C583.678 243.19 582.1 242.504 580.436 242.136C579.208 241.967 578.051 241.464 577.089 240.683C576.128 239.901 575.399 238.871 574.982 237.705C574.565 236.538 574.477 235.279 574.726 234.065C574.975 232.852 575.552 231.729 576.394 230.821C581.079 225.25 587.14 221.002 593.975 218.497C605.734 213.541 617.411 215.268 628.925 219.306C646.119 225.327 667.387 231.588 672.576 248.402C673.383 251.49 673.192 254.756 672.031 257.729C670.87 260.703 668.798 263.234 666.111 264.959C651.789 272.85 647.951 269.915 641.659 268.199ZM590.34 244.966C603.011 252.882 616.854 258.745 631.356 262.34C628.997 259.984 634.013 262.964 591.755 244.56C590.106 243.465 589.35 244.469 590.34 244.966ZM603.269 218.7C595.153 220.582 583.702 225.639 579.024 232.439C576.955 235.449 577.805 237.519 581.452 238.501C600.278 243.378 618.309 250.929 634.991 260.925C644.263 265.602 651.59 269.557 663.684 259.514C669.329 254.833 669.547 250.821 665.701 244.56C662.612 239.291 657.949 235.123 652.369 232.642C642.879 228.586 633.178 224.962 623.273 221.526C616.84 219.346 610.055 218.387 603.269 218.7Z" fill="white"/>
<path d="M570.742 318.107C571.145 310.427 576.981 307.435 583.672 311.236C584.048 311.458 635.672 339.914 676.008 363.165C679.583 367.086 682.763 371.35 685.502 375.895C686.431 377.303 685.976 378.906 683.684 378.906C665.773 376.915 681.664 383.226 575.995 323.966C574.178 322.348 571.551 320.734 570.742 318.107ZM673.381 365.182L597.203 321.945C596.593 321.428 595.876 321.05 595.104 320.839C594.332 320.628 593.523 320.588 592.734 320.723C591.945 320.858 591.195 321.164 590.537 321.62C589.879 322.075 589.329 322.669 588.925 323.36C587.269 325.347 587.318 326.371 589.531 327.601C624.383 346.909 667.827 372.253 668.734 372.253C670.149 370.033 671.564 367.606 673.381 365.182ZM679.846 372.05L676.817 367.203C672.975 368.817 671.361 370.838 671.549 374.07C674.39 373.668 677.622 375.688 679.846 372.05ZM575.988 319.925C577.602 317.498 579.017 315.277 580.635 312.85C580.149 312.581 579.612 312.414 579.059 312.36C578.505 312.307 577.947 312.367 577.418 312.538C576.889 312.708 576.401 312.986 575.983 313.353C575.565 313.72 575.228 314.169 574.99 314.672C573.572 317.095 574.178 319.116 575.995 319.925H575.988ZM583.664 324.771C585.685 322.137 587.502 320.124 589.309 317.904C587.883 317.809 586.469 318.224 585.321 319.076C584.174 319.927 583.366 321.159 583.043 322.551C583.066 323.168 583.657 324.166 583.657 324.771H583.664ZM579.623 322.751C581.444 319.74 582.855 317.482 584.07 315.074C581.038 315.68 579.017 317.298 578.802 319.925C578.915 320.907 579.195 321.863 579.63 322.751H579.623Z" fill="white"/>
<path d="M196.554 239.306C208.829 241.444 205.333 266.968 162.408 269.614C145.75 270.641 109.215 264.105 115.533 251.028C116.062 249.48 117.032 248.12 118.325 247.117C119.618 246.114 121.175 245.512 122.807 245.384C122.499 245.995 122.003 246.491 121.392 246.799C120.364 247.341 119.511 248.161 118.929 249.167C118.348 250.172 118.062 251.322 118.104 252.482C118.147 253.643 118.516 254.768 119.169 255.728C119.823 256.689 120.734 257.445 121.798 257.911C139.988 268.966 177.374 270.163 196.151 254.9C197.179 254.141 198.04 253.179 198.683 252.074C199.325 250.969 199.734 249.745 199.885 248.476C200.037 247.207 199.927 245.92 199.562 244.695C199.197 243.47 198.586 242.333 197.765 241.353C197.16 240.924 196.956 240.115 196.554 239.306Z" fill="white"/>
<path d="M620.041 104.949C617.106 104.949 616.545 102.466 618.626 100.908C622.054 97.2124 665.931 94.4429 666.311 94.4429C667.329 94.3625 668.337 94.6898 669.113 95.3529C669.89 96.0159 670.371 96.9602 670.452 97.9782C670.532 98.9962 670.205 100.004 669.542 100.781C668.879 101.558 667.934 102.039 666.916 102.119C651.358 103.958 635.707 104.903 620.041 104.949Z" fill="white"/>
<path d="M485.679 111.816C501.484 110.014 504.095 109.743 506.289 111.007C506.704 111.198 507.052 111.509 507.289 111.899C507.526 112.29 507.641 112.742 507.619 113.198C507.597 113.654 507.44 114.093 507.167 114.459C506.893 114.825 506.517 115.101 506.086 115.252C503.27 116.277 500.36 117.022 497.397 117.476C490.334 118.349 483.053 118.891 475.779 119.293C472.75 119.696 467.278 113.916 485.679 111.816Z" fill="white"/>
<path d="M546.696 296.689C545.285 294.871 543.686 292.647 540.638 293.859C540.032 294.062 533.91 294.502 532.359 291.838C529.451 286.871 518.327 283.936 513.973 283.56C472.671 279.134 454.018 287.556 433.562 299.116C429.622 300.805 432.482 299.947 419.82 295.481C395.405 286.325 354.133 288.376 314.757 313.464C309.67 316.599 305.327 320.805 302.03 325.788C299.479 329.607 297.549 328.945 291.927 331.432C291.322 331.57 290.761 331.855 290.293 332.262C289.825 332.67 289.465 333.186 289.245 333.766C289.025 334.346 288.951 334.971 289.031 335.586C289.111 336.201 289.342 336.787 289.703 337.291C292.935 342.748 351.529 440.943 356.782 450.034C358.4 452.864 359.612 453.47 362.641 452.864C373.757 450.437 467.384 432.258 488.114 427.81C491.402 426.919 494.815 426.577 498.214 426.798C505.245 427.643 512.333 425.757 518.015 421.53C519.61 420.36 521.5 419.66 523.471 419.509C532.965 418.297 605.704 407.588 613.177 406.579C635.356 404.265 643.003 421.624 546.696 296.689ZM367.687 443.374C366.182 441.869 302.678 337.069 302.425 336.693C304.19 334.928 298.662 327.474 366.675 439.739C368.846 443.355 368.865 442.196 367.687 443.374ZM399.608 433.27C424.553 422.233 451.354 415.995 478.609 414.884L399.608 433.27ZM407.691 425.996C425.268 417.108 443.654 411.452 462.447 412.258C443.745 414.806 425.381 419.413 407.691 425.996ZM372.737 441.353C349.702 403.773 326.669 366.26 303.637 328.813C338.114 299.462 384.143 288.29 423.048 302.145C427.852 303.808 431.924 307.095 434.563 311.44C467.85 362.458 497.382 406.301 501.439 413.067C453.152 398.116 411.127 411.249 372.737 441.353ZM506.289 412.258C482.65 376.697 458.808 340.734 434.766 304.772C457.416 286.024 505.01 283.913 528.717 292.647C530.512 293.099 604.511 389.672 606.099 392.054C589.038 388.399 571.337 389.023 554.576 393.872C537.709 397.742 521.459 403.93 506.289 412.258ZM590.742 394.884C576.819 396.905 562.053 398.722 547.505 400.743C566.904 395.49 585.086 393.266 590.742 394.884ZM528.111 409.834C527.95 409.597 527.878 409.31 527.908 409.025C532.555 407.814 537.406 406.391 542.456 405.59C552.638 404.043 592.812 397.985 603.269 397.511C604.638 397.527 605.998 397.731 607.311 398.116C580.646 402.158 554.377 405.996 528.111 409.834Z" fill="white"/>
<path d="M575.995 319.925C571.856 318.081 575.329 310.296 580.439 312.851C579.024 315.266 577.41 317.498 575.995 319.925Z" fill="#00DF9C"/>
<path d="M220.396 449.436C219.99 451.656 218.774 452.71 216.757 452.465C207.233 451.31 219.685 456.793 178.977 432.664C168.361 426.373 124.827 402.91 124.827 394.884C125.817 393.894 137.192 395.637 138.972 396.702C229.021 451.092 213.931 441.357 220.396 449.436ZM178.168 428.826C179.187 429.846 197.972 441.03 211.504 449.03C212.908 449.861 213.525 449.233 214.334 448.224C215.143 447.009 214.334 446.411 213.325 445.797C209.525 443.491 186.853 429.616 179.582 425.391C179.182 426.564 178.709 427.711 178.168 428.826Z" fill="white"/>
<path d="M475.173 173.443C478.868 174.011 476.302 172.555 531.949 220.518C534.049 221.918 532.51 223.348 531.14 223.348C523.464 224.153 340.612 244.981 332.33 246.178C331.035 246.39 329.706 246.237 328.493 245.738C327.279 245.238 326.229 244.411 325.459 243.348C285.947 195.434 284.683 195.558 285.251 193.846C286.843 190.662 474.729 173.371 475.173 173.443ZM322.429 208.194C320.002 208.597 318.185 208.999 316.164 209.203C314.346 209.609 315.961 210.215 317.176 210.215C324.367 208.217 327.445 212.951 335.762 223.348C332.936 223.75 330.712 223.954 328.488 224.356C326.467 225.165 328.288 224.962 328.488 225.165C330.435 225.38 332.4 225.38 334.347 225.165C335.354 224.929 336.409 224.995 337.379 225.354C338.35 225.713 339.193 226.35 339.803 227.186C341.726 229.109 343.75 230.929 345.865 232.638C346.471 233.045 347.077 233.448 346.471 232.033C344.45 229.812 342.633 227.589 340.409 225.368C340.367 225.319 340.339 225.26 340.327 225.197C340.315 225.133 340.319 225.068 340.339 225.007C340.36 224.945 340.396 224.89 340.443 224.847C340.491 224.804 340.549 224.773 340.612 224.759C343.845 224.356 357.583 222.539 364.654 221.933C365.674 222.07 366.61 222.573 367.288 223.348C372.492 228.552 379.525 236.706 377.392 232.439C374.562 229.003 371.747 225.368 368.703 221.933C369.512 221.526 375.179 221.003 390.728 219.299C397.802 218.546 400.067 217.639 402.243 220.108C404.5 222.689 406.89 225.158 409.114 227.784C410.122 229.399 410.931 228.593 409.72 227.178C407.699 224.145 405.475 221.319 403.255 218.087C411.94 217.075 420.429 216.066 429.114 215.054C432.124 215.054 435.632 221.688 439.62 224.349L440.226 223.743C438.006 220.913 435.985 218.098 433.761 215.257C433.193 214.128 433.046 214.836 457.4 211.618C460.234 211.242 462.048 210.813 464.069 213.639C467.707 220.108 469.337 221.116 467.907 217.481C467.301 216.469 465.886 213.639 465.081 212.025C465.023 211.92 464.993 211.802 464.995 211.683C464.997 211.563 465.03 211.446 465.091 211.344C465.153 211.241 465.24 211.157 465.345 211.098C465.449 211.04 465.567 211.011 465.687 211.013C468.919 210.61 477.006 209.029 484.272 208.187C490.944 207.411 492.98 206.151 495.384 208.792C497.217 210.802 499.226 212.631 501.247 214.651C502.658 216.266 503.264 215.863 502.052 214.046L496.408 207.174C496.31 207.099 496.24 206.995 496.208 206.876C496.175 206.758 496.183 206.632 496.228 206.518C496.274 206.404 496.355 206.308 496.46 206.244C496.565 206.181 496.688 206.153 496.81 206.166L503.682 204.348C505.296 203.942 504.491 203.539 503.478 203.539C494.029 204.397 494.782 206.106 489.74 200.104C487.527 197.47 479.636 190.809 478.424 189.597C479.077 189.219 479.751 188.881 480.445 188.585C481.86 188.183 481.86 187.577 479.839 187.979C478.697 188.222 477.51 188.153 476.404 187.78C476.001 187.577 472.972 183.942 471.96 182.726C470.748 181.718 470.748 182.324 471.354 183.133L473.988 187.373C474.046 187.478 474.076 187.596 474.074 187.715C474.072 187.835 474.038 187.952 473.977 188.054C473.916 188.157 473.828 188.242 473.724 188.3C473.619 188.358 473.501 188.388 473.382 188.386C464.896 189.394 456.61 190.406 448.328 191.212C445.63 191.212 444.565 189.387 441.66 186.971C440.851 185.556 440.245 186.162 441.257 187.373C442.266 188.788 443.075 190.203 444.087 191.618C444.49 192.427 444.286 192.627 443.884 192.627C440.046 193.436 432.365 193.62 427.703 194.245C415.981 195.818 415.349 196.089 410.732 190.606C409.684 189.43 408.534 188.348 407.296 187.373C406.69 186.568 406.288 187.174 406.69 187.979C408.512 190.203 410.732 193.033 412.753 195.456C412.793 195.506 412.821 195.565 412.832 195.627C412.844 195.69 412.84 195.755 412.819 195.816C412.799 195.876 412.763 195.931 412.716 195.974C412.669 196.017 412.612 196.047 412.549 196.062C409.52 196.265 396.997 196.879 391.537 197.88C387.096 198.696 386.269 198.486 382.852 194.448C381.953 193.146 380.938 191.928 379.819 190.809C378.404 188.992 378.81 190.406 379.213 191.415C380.628 193.436 382.043 195.66 383.458 197.88C383.5 197.972 383.523 198.073 383.526 198.175C383.528 198.277 383.51 198.378 383.472 198.473C383.434 198.568 383.377 198.654 383.304 198.726C383.232 198.798 383.146 198.854 383.051 198.892C373.757 200.307 364.707 201.752 355.581 203.133C352.244 203.641 353.403 202.38 348.104 197.074L347.498 197.68C348.714 199.701 350.133 201.519 351.743 203.739C343.863 205.154 336.183 206.151 328.507 207.78C327.376 208.111 326.165 208.027 325.091 207.544C324.017 207.061 323.151 206.211 322.648 205.146C317.598 198.884 316.789 199.287 317.598 200.299C318.943 203.084 320.562 205.729 322.429 208.194Z" fill="#00DF9C"/>
<path d="M324.853 258.705C324.477 258.329 321.256 255.864 325.256 254.867C333.534 253.855 540.435 230.216 549.323 229.207C551.065 229.207 552.281 231.348 549.526 232.033C528.231 234.784 329.131 257.847 324.853 258.705Z" fill="white"/>
<path d="M265.45 193.041C320.732 255.13 322.038 253.38 319.6 255.472C318.185 256.684 317.188 255.258 316.367 254.261C305.805 241.391 262.421 194.662 262.421 193.846C262.421 193.24 262.406 189.616 265.45 193.041Z" fill="white"/>
<path d="M352.733 332.855C350.392 334.055 348.134 335.402 347.465 333.664C346.659 330.439 363.706 323.022 365.448 322.349C381.313 316.127 398.343 313.438 415.353 314.469C418.286 314.789 421.19 315.33 424.042 316.087C432.76 320.433 391.127 313.182 352.733 332.855Z" fill="white"/>
<path d="M425.675 329.622C430.522 331.643 425.874 332.256 425.065 332.256C415.246 332.313 405.472 333.603 395.974 336.094C395.368 336.297 390.517 335.691 395.164 333.46C413.193 327.684 417.174 327.661 425.675 329.622Z" fill="white"/>
<path d="M508.31 371.85C505.887 368.012 503.46 364.373 501.036 360.738C500.682 360.507 500.284 360.351 499.867 360.281C499.45 360.211 499.023 360.228 498.613 360.332C496.577 360.893 494.368 361.544 492.144 361.95C493.36 359.12 496.186 358.514 498.613 356.896C496.792 353.867 495.177 350.838 493.345 347.605C486.06 350.239 486.496 350.104 484.453 349.423C485.679 347.583 483.523 348.294 491.93 344.776C489.503 340.531 487.282 336.497 484.855 332.249C483.241 332.854 481.623 333.46 479.805 334.066C479.805 331.24 482.229 331.056 483.444 329.825C481.623 325.987 479.805 322.145 477.988 318.104C478.191 317.904 478.086 314.8 481.22 319.116C486.489 326.363 486.97 328.41 488.494 328.41C495.162 326.995 501.627 325.377 508.295 323.763C501.424 311.236 500.415 306.991 510.718 321.742C510.951 322.426 511.437 322.995 512.076 323.333C512.714 323.671 513.458 323.752 514.154 323.56C518.997 323.089 523.851 322.954 529.104 322.751C528.43 321.533 527.889 320.246 527.49 318.913C522.222 302.547 530.316 317.701 530.316 317.904C534.034 329.058 543.039 319.65 546.873 326.792C543.641 326.593 540.205 326.39 536.164 326.186C538.388 329.622 540.205 332.651 542.226 335.684C542.7 336.629 552.604 335.756 555.562 338.695C552.126 340.512 548.691 338.695 544.853 339.906C546.471 342.54 548.085 345.174 549.906 347.786C550.106 348.192 551.118 348.192 551.923 348.192C554.956 348.392 557.786 348.392 560.815 348.595C561.651 348.772 562.464 349.044 563.239 349.404C563.239 350.872 564.435 349.713 552.326 351.624C554.143 354.657 555.761 357.686 557.782 360.516C558.832 361.57 562.298 360.84 570.509 361.325C571.303 361.325 575.024 362.65 573.944 363.749C569.5 364.151 565.052 364.558 560.398 364.96C560.745 366.478 561.217 367.964 561.809 369.404C567.077 383.952 566.862 384.558 559.174 371.226C557.669 369.212 556.352 365.769 554.328 365.769C549.06 366.578 544.021 367.387 538.568 368.193C539.983 371.628 542.61 378.5 543.415 381.126C545.236 385.973 542.203 381.529 542.004 381.326C536.879 374.071 535.385 369.608 533.112 369.608C527.05 370.819 521.191 372.242 515.129 373.446C516.95 376.678 518.564 379.711 520.182 382.74C521.597 384.964 519.979 384.558 519.17 383.346C517.958 381.931 516.536 380.712 515.332 379.305C513.924 377.683 512.698 375.064 511.091 374.658C508.957 373.95 506.639 375.963 499.776 377.487C501.036 374.477 504.875 373.871 508.31 371.85ZM495.58 343.361C502.045 341.746 508.31 339.925 514.572 338.311C512.957 334.672 511.14 331.24 509.304 327.199C502.636 328.41 495.757 329.833 488.494 331.24C491.136 335.481 493.345 339.522 495.58 343.361ZM504.065 358.514C506.7 362.556 509.119 366.394 511.543 370.033C511.705 370.241 511.93 370.392 512.184 370.464C512.439 370.537 512.709 370.527 512.957 370.435C518.816 368.817 524.879 367.203 530.937 365.386C528.92 361.95 526.899 358.718 524.879 355.485C524.732 355.252 524.518 355.07 524.266 354.962C524.013 354.854 523.733 354.825 523.464 354.879C517.198 356.091 510.937 357.303 504.065 358.514ZM522.252 351.444C520.634 348.614 518.816 345.799 517.198 342.958C516.476 341.509 513.567 343.12 497.198 346.19C499.016 349.423 500.43 351.835 502.045 354.469C502.451 354.875 503.26 355.481 503.866 355.278C509.924 354.07 515.987 352.859 522.252 351.444ZM528.514 353.867C533.68 362.322 534.741 364.78 535.991 364.78C541.259 363.971 546.497 362.958 551.95 361.95C550.132 358.917 548.518 356.091 546.681 353.261C546.113 352.095 544.612 352.204 528.514 353.867ZM512.957 326.792C518.944 337.769 517.146 337.855 524.273 337.099C528.111 336.689 531.949 336.29 535.991 335.884C534.373 332.854 532.803 329.995 531.14 327.398C530.943 327.077 530.678 326.802 530.365 326.592C530.051 326.383 529.695 326.245 529.323 326.186C524.066 326.288 518.816 326.593 512.957 326.792ZM520.837 341.34C522.655 344.572 524.273 347.199 526.105 349.826C526.297 350.072 526.541 350.273 526.821 350.413C527.1 350.553 527.407 350.629 527.72 350.635C533.176 350.029 538.429 349.22 544.085 348.614C536.792 337.697 542.531 339.79 520.837 341.34Z" fill="white"/>
<path d="M472.75 307.801C472.144 305.983 473.559 304.971 474.974 304.568C495.508 297.005 516.528 298.442 520.431 302.344C522.188 304.102 520.25 305.163 519.019 304.772C504.34 300.098 487.343 304.154 472.75 307.801Z" fill="white"/>
<path d="M62.192 270.626C68.6285 270.685 74.9037 272.647 80.2281 276.264C85.5525 279.881 89.6883 284.992 92.1152 290.953C94.542 296.915 95.1516 303.461 93.8672 309.769C92.5828 316.076 89.4618 321.863 84.8967 326.401C80.3317 330.938 74.5266 334.025 68.2118 335.272C61.8969 336.518 55.3544 335.87 49.4072 333.408C43.4601 330.945 38.374 326.779 34.7887 321.433C31.2035 316.087 29.2794 309.801 29.2583 303.364C29.3011 294.66 32.7909 286.329 38.9635 280.193C45.1361 274.057 53.4885 270.617 62.192 270.626ZM57.3453 298.306C57.3453 298.103 50.6773 284.97 47.2416 277.9C44.0092 280.929 41.1795 283.544 37.9471 286.385C44.6151 290.626 57.1421 298.306 57.3453 298.306ZM36.7354 317.9C39.9678 321.336 42.7976 324.162 45.8268 327.394C50.0714 320.527 58.1543 307.394 58.1543 307.191C57.5899 307.774 43.8625 314.34 36.7354 317.9ZM35.3205 315.266C42.7976 311.428 56.333 304.353 56.333 304.154C48.6565 303.748 40.98 303.548 32.6939 303.142C33.5067 307.398 34.312 311.033 35.3205 315.266ZM87.8519 317.486C89.0673 313.449 90.279 309.81 91.4907 305.972C83.2121 305.569 67.8516 304.959 67.6484 305.163C74.3164 309.215 80.7812 313.257 87.8519 317.498V317.486ZM65.225 274.25C64.8186 282.528 64.2128 297.889 64.416 297.889C68.4574 291.424 72.4989 284.959 76.943 277.888C72.9015 276.688 69.2552 275.473 65.225 274.25ZM60.5777 297.283C60.7809 297.283 61.5862 282.129 61.9926 274.05C57.9511 274.855 54.1129 275.868 50.0714 276.684C53.7065 283.958 57.1421 290.626 60.5777 297.294V297.283ZM86.0343 320.316C79.3663 316.075 66.6399 308.395 66.4367 308.598C69.8723 315.063 73.3041 321.528 76.7398 328.399C79.9722 325.803 82.8019 323.168 86.0343 320.327V320.316ZM55.1214 301.527C55.1214 301.324 43.0008 293.249 36.3327 289C35.121 292.839 33.9056 296.474 32.6939 300.316C40.7768 300.73 48.0507 301.132 55.1214 301.539V301.527ZM89.2668 291.826C82.1961 295.262 75.5281 298.494 69.0633 301.727C69.0633 301.93 83.8142 302.739 91.6939 303.142C90.8849 299.112 90.0758 295.477 89.2668 291.838V291.826ZM73.9137 329.814C70.2749 322.943 63.4075 310.212 63.4075 310.212C63.2043 317.287 62.7979 324.561 62.5984 332.237C66.4367 331.447 69.8723 330.63 73.9137 329.825V329.814ZM79.7915 279.92C75.7501 286.385 71.9118 292.244 67.8704 298.103C68.0698 298.306 80.8 291.838 87.6713 288.406C84.8227 285.576 82.3993 282.746 79.7915 279.92ZM58.9784 332.045C59.5843 324.572 60.1901 310.427 59.9907 310.427C56.1524 316.286 52.5136 322.348 48.2727 328.813C52.0921 330.025 55.3321 331.037 58.9596 332.045H58.9784Z" fill="white"/>
<path d="M595.995 224.153C599.028 224.153 601.858 223.953 604.684 224.153C606.302 224.356 610.329 229.003 611.555 230.012C608.921 229.609 603.07 228.601 602.663 228.397C600.643 227.186 598.622 225.771 595.995 224.153Z" fill="white"/>
<path d="M399.003 216.074C395.368 216.477 392.339 216.906 389.306 217.286C382.442 218.148 375.567 218.701 368.696 219.506C367.887 219.506 366.675 219.506 366.272 218.9C362.633 214.659 358.998 210.215 354.957 205.353C359.202 204.748 377.606 202.238 382.841 201.312C383.767 201.064 384.748 201.105 385.65 201.43C386.553 201.755 387.335 202.348 387.891 203.129C391.097 207.205 394.961 211.427 399.003 216.074Z" fill="#00DF9C"/>
<path d="M489.721 204.152C489.818 204.227 489.888 204.332 489.921 204.451C489.953 204.569 489.946 204.695 489.9 204.809C489.855 204.923 489.773 205.019 489.668 205.082C489.563 205.146 489.44 205.174 489.318 205.161C486.575 205.485 475.211 207.253 463.455 208.194C460.132 208.194 462.484 208.472 449.314 194.647C449.216 194.572 449.146 194.468 449.114 194.349C449.081 194.231 449.089 194.105 449.134 193.991C449.18 193.877 449.261 193.781 449.366 193.717C449.471 193.654 449.594 193.626 449.716 193.639C475.305 190.109 475.305 189.338 476.185 190.203C480.832 194.85 485.224 199.554 489.721 204.152Z" fill="#00DF9C"/>
<path d="M417.592 197.281C426.92 196.115 438.958 194.994 443.654 194.252C444.582 194.075 445.54 194.15 446.428 194.47C447.316 194.789 448.102 195.342 448.704 196.07C452.222 200.247 455.978 204.348 459.82 208.8C454.063 209.62 454.909 209.349 432.542 212.032C431.695 212.048 430.859 211.839 430.119 211.427C425.874 207.182 421.84 202.738 417.592 198.294V197.281Z" fill="#00DF9C"/>
<path d="M428.301 212.639C421.43 213.448 414.755 213.843 408.094 215.273C405.776 215.903 403.312 215.724 401.109 214.766C398.906 213.809 397.094 212.129 395.973 210.004C393.761 207.057 391.4 204.225 388.899 201.519C388.823 201.418 388.773 201.301 388.753 201.177C388.733 201.053 388.743 200.925 388.783 200.806C388.823 200.687 388.892 200.579 388.983 200.492C389.074 200.405 389.184 200.342 389.305 200.307C413.938 197.673 410.412 197.906 413.148 197.673C414.359 197.673 414.969 198.475 415.782 199.287C420.257 203.444 424.441 207.905 428.301 212.639Z" fill="#00DF9C"/>
<path d="M327.077 209.609C333.944 208.597 337.794 207.874 346.069 206.779C350.923 206.136 352.928 204.243 355.359 208.394C359.299 215.122 361.433 215.382 364.455 219.912C352.721 221.214 347.318 222.121 340.21 222.742C337.124 222.742 336.823 221.47 326.873 210.414C326.793 210.367 326.73 210.295 326.694 210.208C326.658 210.122 326.651 210.026 326.674 209.936C326.696 209.845 326.748 209.764 326.821 209.705C326.893 209.647 326.983 209.613 327.077 209.609Z" fill="#00DF9C"/>
</svg>
