<svg width="686" height="676" viewBox="0 0 686 676" fill="none" xmlns="http://www.w3.org/2000/svg">
<path d="M352.413 674C535.189 674 683.358 525.831 683.358 343.055C683.358 160.28 535.189 12.1106 352.413 12.1106C169.637 12.1106 21.4683 160.28 21.4683 343.055C21.4683 525.831 169.637 674 352.413 674Z" fill="#E8F4FA" stroke="#DAEDF7" stroke-width="4" stroke-miterlimit="10"/>
<path d="M593.44 321.875L537.908 152.448M343.097 624.557L486.264 570.406L343.097 624.557ZM25.481 244.691L146.714 558.153L25.481 244.691ZM337.43 25.481L182.15 111.204L337.43 25.481ZM25.481 244.691L182.15 111.204L25.481 244.691ZM467.425 75.95L337.43 25.481L467.425 75.95ZM537.908 152.448L467.425 75.95L537.908 152.448ZM635.917 186.097L537.908 152.448L635.917 186.097ZM593.44 321.875L486.264 570.406L593.44 321.875ZM640.418 500.933L486.264 570.406L640.418 500.933ZM182.15 111.204L467.425 75.95L182.15 111.204ZM180.504 427.67L146.714 558.153L180.504 427.67ZM25.481 244.691L180.504 427.67L25.481 244.691ZM343.097 624.557L180.504 427.67L343.097 624.557ZM183.855 258.086L343.097 226.836L183.855 258.086ZM467.425 75.95L374.586 386.856L467.425 75.95Z" stroke="#45413C" stroke-width="4" stroke-linecap="round" stroke-linejoin="round"/>
<path d="M640.418 500.932L374.586 386.856L640.418 500.932Z" fill="#FFE500"/>
<path d="M640.418 500.932L374.586 386.856" stroke="#45413C" stroke-width="4" stroke-linecap="round" stroke-linejoin="round"/>
<path d="M374.586 386.855L343.096 226.835L467.424 75.9492" stroke="#45413C" stroke-width="4" stroke-linecap="round" stroke-linejoin="round"/>
<path d="M343.096 226.835L593.44 321.875L343.096 226.835ZM640.417 500.932L593.44 321.875L640.417 500.932Z" fill="#FFE500"/>
<path d="M640.417 500.932L593.44 321.875M343.096 226.835L593.44 321.875L343.096 226.835Z" stroke="#45413C" stroke-width="4" stroke-linecap="round" stroke-linejoin="round"/>
<path d="M374.379 385.515L343.097 624.557L146.714 558.153M486.263 570.406L374.586 386.856L486.263 570.406Z" stroke="#45413C" stroke-width="4" stroke-linecap="round" stroke-linejoin="round"/>
<path d="M374.379 385.515L180.503 427.669L374.379 385.515ZM635.917 186.096L593.44 321.874L635.917 186.096Z" fill="#FFE500"/>
<path d="M635.917 186.096L593.44 321.874M374.379 385.515L180.503 427.669L374.379 385.515Z" stroke="#45413C" stroke-width="4" stroke-linecap="round" stroke-linejoin="round"/>
<path d="M343.096 250.316C356.064 250.316 366.577 239.803 366.577 226.835C366.577 213.868 356.064 203.355 343.096 203.355C330.128 203.355 319.616 213.868 319.616 226.835C319.616 239.803 330.128 250.316 343.096 250.316Z" fill="#FF6242" stroke="#45413C" stroke-width="4" stroke-linecap="round" stroke-linejoin="round"/>
<path d="M374.586 386.856L537.907 152.448L374.586 386.856Z" fill="white"/>
<path d="M374.586 386.856L537.907 152.448" stroke="#45413C" stroke-width="4" stroke-linecap="round" stroke-linejoin="round"/>
<path d="M183.855 258.086L374.586 386.856L183.855 258.086ZM183.855 258.086L182.15 111.204L183.855 258.086ZM183.855 258.086L337.43 25.481L183.855 258.086ZM183.855 258.086L25.481 244.691L183.855 258.086ZM183.855 258.086L180.504 427.67L183.855 258.086Z" fill="#FFE500"/>
<path d="M183.855 258.086L180.504 427.67M183.855 258.086L374.586 386.856L183.855 258.086ZM183.855 258.086L182.15 111.204L183.855 258.086ZM183.855 258.086L337.43 25.481L183.855 258.086ZM183.855 258.086L25.481 244.691L183.855 258.086Z" stroke="#45413C" stroke-width="4" stroke-linecap="round" stroke-linejoin="round"/>
<path d="M537.907 175.928C550.875 175.928 561.388 165.416 561.388 152.448C561.388 139.48 550.875 128.967 537.907 128.967C524.939 128.967 514.427 139.48 514.427 152.448C514.427 165.416 524.939 175.928 537.907 175.928Z" fill="#FFE500" stroke="#45413C" stroke-width="4" stroke-linecap="round" stroke-linejoin="round"/>
<path d="M635.917 209.577C648.885 209.577 659.398 199.064 659.398 186.096C659.398 173.128 648.885 162.616 635.917 162.616C622.949 162.616 612.437 173.128 612.437 186.096C612.437 199.064 622.949 209.577 635.917 209.577Z" fill="#FF6242" stroke="#45413C" stroke-width="4" stroke-linecap="round" stroke-linejoin="round"/>
<path d="M640.418 524.413C653.385 524.413 663.898 513.9 663.898 500.932C663.898 487.964 653.385 477.452 640.418 477.452C627.45 477.452 616.937 487.964 616.937 500.932C616.937 513.9 627.45 524.413 640.418 524.413Z" fill="#4ACFFF" stroke="#45413C" stroke-width="4" stroke-linecap="round" stroke-linejoin="round"/>
<path d="M467.424 99.4296C480.392 99.4296 490.905 88.917 490.905 75.949C490.905 62.9811 480.392 52.4685 467.424 52.4685C454.456 52.4685 443.944 62.9811 443.944 75.949C443.944 88.917 454.456 99.4296 467.424 99.4296Z" fill="#4ACFFF" stroke="#45413C" stroke-width="4" stroke-linecap="round" stroke-linejoin="round"/>
<path d="M182.058 134.684C195.026 134.684 205.539 124.172 205.539 111.204C205.539 98.236 195.026 87.7234 182.058 87.7234C169.09 87.7234 158.578 98.236 158.578 111.204C158.578 124.172 169.09 134.684 182.058 134.684Z" fill="#4ACFFF" stroke="#45413C" stroke-width="4" stroke-linecap="round" stroke-linejoin="round"/>
<path d="M25.4805 269.146C38.4485 269.146 48.9611 258.634 48.9611 245.666C48.9611 232.698 38.4485 222.185 25.4805 222.185C12.5126 222.185 2 232.698 2 245.666C2 258.634 12.5126 269.146 25.4805 269.146Z" fill="#FFE500" stroke="#45413C" stroke-width="4" stroke-linecap="round" stroke-linejoin="round"/>
<path d="M337.429 48.9611C350.397 48.9611 360.91 38.4485 360.91 25.4805C360.91 12.5126 350.397 2 337.429 2C324.461 2 313.948 12.5126 313.948 25.4805C313.948 38.4485 324.461 48.9611 337.429 48.9611Z" fill="#FFE500" stroke="#45413C" stroke-width="4" stroke-linecap="round" stroke-linejoin="round"/>
<path d="M343.096 646.995C356.064 646.995 366.577 636.482 366.577 623.514C366.577 610.546 356.064 600.034 343.096 600.034C330.128 600.034 319.616 610.546 319.616 623.514C319.616 636.482 330.128 646.995 343.096 646.995Z" fill="#FFE500" stroke="#45413C" stroke-width="4" stroke-linecap="round" stroke-linejoin="round"/>
<path d="M146.714 581.633C159.682 581.633 170.194 571.121 170.194 558.153C170.194 545.185 159.682 534.672 146.714 534.672C133.746 534.672 123.233 545.185 123.233 558.153C123.233 571.121 133.746 581.633 146.714 581.633Z" fill="#FF6242" stroke="#45413C" stroke-width="4" stroke-linecap="round" stroke-linejoin="round"/>
<path d="M180.503 451.15C193.471 451.15 203.984 440.637 203.984 427.67C203.984 414.702 193.471 404.189 180.503 404.189C167.535 404.189 157.023 414.702 157.023 427.67C157.023 440.637 167.535 451.15 180.503 451.15Z" fill="#4ACFFF" stroke="#45413C" stroke-width="4" stroke-linecap="round" stroke-linejoin="round"/>
<path d="M164.717 241.083C164.664 243.631 165.12 246.163 166.058 248.531C166.997 250.9 168.398 253.058 170.181 254.878C171.963 256.698 174.091 258.144 176.44 259.131C178.789 260.118 181.311 260.627 183.858 260.627C186.406 260.627 188.928 260.118 191.277 259.131C193.625 258.144 195.753 256.698 197.536 254.878C199.319 253.058 200.72 250.9 201.658 248.531C202.596 246.163 203.052 243.631 202.999 241.083V231.511C203.052 228.964 202.596 226.432 201.658 224.063C200.72 221.694 199.319 219.537 197.536 217.717C195.753 215.897 193.625 214.451 191.277 213.463C188.928 212.476 186.406 211.968 183.858 211.968C181.311 211.968 178.789 212.476 176.44 213.463C174.091 214.451 171.963 215.897 170.181 217.717C168.398 219.537 166.997 221.694 166.058 224.063C165.12 226.432 164.664 228.964 164.717 231.511V241.083Z" fill="#E8F4FA"/>
<path d="M183.854 301.96C216.713 301.96 243.35 275.323 243.35 242.464C243.35 209.606 216.713 182.969 183.854 182.969C150.996 182.969 124.359 209.606 124.359 242.464C124.359 275.323 150.996 301.96 183.854 301.96Z" fill="white" stroke="#45413C" stroke-width="4" stroke-linecap="round" stroke-linejoin="round"/>
<path d="M164.717 241.083C164.664 243.63 165.12 246.162 166.058 248.531C166.997 250.899 168.398 253.057 170.181 254.877C171.963 256.697 174.091 258.143 176.44 259.13C178.789 260.117 181.311 260.626 183.858 260.626C186.406 260.626 188.928 260.117 191.277 259.13C193.625 258.143 195.753 256.697 197.536 254.877C199.319 253.057 200.72 250.899 201.658 248.531C202.596 246.162 203.052 243.63 202.999 241.083V231.51C203.052 228.963 202.596 226.431 201.658 224.062C200.72 221.694 199.319 219.536 197.536 217.716C195.753 215.896 193.625 214.45 191.277 213.463C188.928 212.476 186.406 211.967 183.858 211.967C181.311 211.967 178.789 212.476 176.44 213.463C174.091 214.45 171.963 215.896 170.181 217.716C168.398 219.536 166.997 221.694 166.058 224.062C165.12 226.431 164.664 228.963 164.717 231.51V241.083Z" fill="#FFCEBF" stroke="#45413C" stroke-width="4" stroke-linecap="round" stroke-linejoin="round"/>
<path d="M223.633 286.703C212.713 296.511 198.553 301.936 183.875 301.936C169.197 301.936 155.036 296.511 144.116 286.703C147.4 278.881 152.921 272.204 159.986 267.508C167.051 262.812 175.346 260.306 183.829 260.306C192.312 260.306 200.607 262.812 207.672 267.508C214.737 272.204 220.258 278.881 223.542 286.703" fill="#9CEB60"/>
<path d="M223.633 286.703C212.713 296.511 198.553 301.936 183.875 301.936C169.197 301.936 155.036 296.511 144.116 286.703C147.4 278.881 152.921 272.204 159.986 267.508C167.051 262.812 175.346 260.306 183.829 260.306C192.312 260.306 200.607 262.812 207.672 267.508C214.737 272.204 220.258 278.881 223.542 286.703" stroke="#45413C" stroke-width="4" stroke-linecap="round" stroke-linejoin="round"/>
<path d="M164.874 229.036C165.375 225.175 167.042 221.558 169.652 218.669C172.262 215.78 175.691 213.756 179.482 212.866C183.272 211.977 187.244 212.265 190.867 213.692C194.489 215.12 197.59 217.618 199.756 220.853C195.227 225.247 189.59 228.328 183.447 229.77C177.304 231.211 170.885 230.957 164.874 229.036Z" fill="#A86C4D" stroke="#45413C" stroke-width="4" stroke-linecap="round" stroke-linejoin="round"/>
<path d="M374.594 474.283C422.879 474.283 462.021 435.14 462.021 386.856C462.021 338.571 422.879 299.428 374.594 299.428C326.309 299.428 287.167 338.571 287.167 386.856C287.167 435.14 326.309 474.283 374.594 474.283Z" fill="white" stroke="#45413C" stroke-width="4" stroke-linecap="round" stroke-linejoin="round"/>
<path d="M346.463 384.828C346.463 392.289 349.427 399.444 354.703 404.719C359.978 409.995 367.133 412.959 374.594 412.959C382.054 412.959 389.209 409.995 394.485 404.719C399.76 399.444 402.724 392.289 402.724 384.828V370.763C402.724 363.302 399.76 356.147 394.485 350.872C389.209 345.597 382.054 342.633 374.594 342.633C367.133 342.633 359.978 345.597 354.703 350.872C349.427 356.147 346.463 363.302 346.463 370.763V384.828Z" fill="#FFCEBF" stroke="#45413C" stroke-width="4" stroke-linecap="round" stroke-linejoin="round"/>
<path d="M433.03 451.878C416.983 466.295 396.173 474.27 374.602 474.27C353.03 474.27 332.22 466.295 316.174 451.878C320.976 440.354 329.079 430.508 339.464 423.579C349.849 416.649 362.051 412.946 374.536 412.936C387.02 412.925 399.229 416.607 409.626 423.519C420.022 430.431 428.142 440.263 432.964 451.779" fill="#FF6242"/>
<path d="M433.03 451.878C416.983 466.295 396.173 474.27 374.602 474.27C353.03 474.27 332.22 466.295 316.174 451.878C320.976 440.354 329.079 430.508 339.464 423.579C349.849 416.649 362.051 412.946 374.536 412.936C387.02 412.925 399.229 416.607 409.626 423.519C420.022 430.431 428.142 440.263 432.964 451.779" stroke="#45413C" stroke-width="4" stroke-linecap="round" stroke-linejoin="round"/>
<path d="M346.695 367.131C347.428 361.45 349.877 356.128 353.715 351.876C357.554 347.624 362.599 344.646 368.176 343.339C373.753 342.032 379.597 342.458 384.925 344.562C390.253 346.665 394.812 350.345 397.992 355.11C391.331 361.571 383.041 366.101 374.007 368.219C364.973 370.336 355.533 369.96 346.695 367.131Z" fill="#A86C4D" stroke="#45413C" stroke-width="4" stroke-linecap="round" stroke-linejoin="round"/>
<path d="M593.44 377.085C626.298 377.085 652.936 350.448 652.936 317.589C652.936 284.731 626.298 258.094 593.44 258.094C560.581 258.094 533.944 284.731 533.944 317.589C533.944 350.448 560.581 377.085 593.44 377.085Z" fill="white" stroke="#45413C" stroke-width="4" stroke-linecap="round" stroke-linejoin="round"/>
<path d="M574.295 316.207C574.295 321.284 576.312 326.154 579.902 329.744C583.493 333.335 588.362 335.352 593.44 335.352C598.517 335.352 603.387 333.335 606.977 329.744C610.568 326.154 612.585 321.284 612.585 316.207V306.634C612.585 301.557 610.568 296.687 606.977 293.096C603.387 289.506 598.517 287.489 593.44 287.489C588.362 287.489 583.493 289.506 579.902 293.096C576.312 296.687 574.295 301.557 574.295 306.634V316.207Z" fill="#FFCEBF" stroke="#45413C" stroke-width="4" stroke-linecap="round" stroke-linejoin="round"/>
<path d="M633.211 361.836C622.291 371.648 608.129 377.075 593.448 377.075C578.768 377.075 564.605 371.648 553.685 361.836C556.954 353.994 562.47 347.294 569.537 342.579C576.605 337.864 584.909 335.344 593.405 335.337C601.901 335.33 610.21 337.836 617.285 342.539C624.361 347.243 629.888 353.934 633.17 361.77" fill="#FFAA54"/>
<path d="M633.211 361.836C622.291 371.648 608.129 377.075 593.448 377.075C578.768 377.075 564.605 371.648 553.685 361.836C556.954 353.994 562.47 347.294 569.537 342.579C576.605 337.864 584.909 335.344 593.405 335.337C601.901 335.33 610.21 337.836 617.285 342.539C624.361 347.243 629.888 353.934 633.17 361.77" stroke="#45413C" stroke-width="4" stroke-linecap="round" stroke-linejoin="round"/>
<path d="M574.452 304.161C574.955 300.3 576.623 296.685 579.234 293.796C581.845 290.908 585.274 288.884 589.065 287.995C592.855 287.107 596.827 287.394 600.45 288.821C604.073 290.247 607.174 292.744 609.342 295.978C604.81 300.37 599.171 303.451 593.027 304.891C586.883 306.332 580.464 306.08 574.452 304.161Z" fill="#A86C4D" stroke="#45413C" stroke-width="4" stroke-linecap="round" stroke-linejoin="round"/>
<path d="M486.263 629.695C519.121 629.695 545.759 603.058 545.759 570.199C545.759 537.34 519.121 510.703 486.263 510.703C453.404 510.703 426.767 537.34 426.767 570.199C426.767 603.058 453.404 629.695 486.263 629.695Z" fill="white" stroke="#45413C" stroke-width="4" stroke-linecap="round" stroke-linejoin="round"/>
<path d="M467.118 568.834C467.118 573.912 469.135 578.781 472.725 582.372C476.316 585.962 481.185 587.979 486.263 587.979C491.341 587.979 496.21 585.962 499.801 582.372C503.391 578.781 505.408 573.912 505.408 568.834V559.253C505.408 554.176 503.391 549.306 499.801 545.716C496.21 542.125 491.341 540.108 486.263 540.108C481.185 540.108 476.316 542.125 472.725 545.716C469.135 549.306 467.118 554.176 467.118 559.253V568.834Z" fill="#FFCEBF" stroke="#45413C" stroke-width="4" stroke-linecap="round" stroke-linejoin="round"/>
<path d="M526.034 614.455C515.112 624.261 500.95 629.685 486.271 629.685C471.592 629.685 457.431 624.261 446.508 614.455C449.777 606.612 455.291 599.912 462.359 595.196C469.426 590.48 477.73 587.96 486.226 587.952C494.722 587.944 503.031 590.449 510.107 595.151C517.183 599.854 522.71 606.544 525.993 614.38" fill="#00B8F0"/>
<path d="M526.034 614.455C515.112 624.261 500.95 629.685 486.271 629.685C471.592 629.685 457.431 624.261 446.508 614.455C449.777 606.612 455.291 599.912 462.359 595.196C469.426 590.48 477.73 587.96 486.226 587.952C494.722 587.944 503.031 590.449 510.107 595.151C517.183 599.854 522.71 606.544 525.993 614.38" stroke="#45413C" stroke-width="4" stroke-linecap="round" stroke-linejoin="round"/>
<path d="M467.275 556.779C467.778 552.919 469.446 549.303 472.057 546.415C474.668 543.527 478.098 541.503 481.888 540.614C485.679 539.725 489.65 540.013 493.273 541.439C496.896 542.865 499.998 545.362 502.165 548.597C497.633 552.989 491.995 556.069 485.851 557.51C479.707 558.951 473.287 558.698 467.275 556.779Z" fill="#A86C4D" stroke="#45413C" stroke-width="4" stroke-linecap="round" stroke-linejoin="round"/>
</svg>
