<svg width="72" height="59" viewBox="0 0 72 59" fill="none" xmlns="http://www.w3.org/2000/svg">
<path d="M54.8267 51.423C57.0332 51.423 59.1494 52.1892 60.7097 53.5529C62.27 54.9166 63.1465 56.7663 63.1465 58.6949C63.1465 56.7663 64.0231 54.9166 65.5833 53.5529C67.1436 52.1892 69.2598 51.423 71.4663 51.423C69.2598 51.423 67.1436 50.6569 65.5833 49.2931C64.0231 47.9294 63.1465 46.0797 63.1465 44.1511C63.1465 46.0797 62.27 47.9294 60.7097 49.2931C59.1494 50.6569 57.0332 51.423 54.8267 51.423ZM54.8267 7.79151C57.0332 7.79151 59.1494 8.55766 60.7097 9.92141C62.27 11.2852 63.1465 13.1348 63.1465 15.0634C63.1465 13.1348 64.0231 11.2852 65.5833 9.92141C67.1436 8.55766 69.2598 7.79151 71.4663 7.79151C69.2598 7.79151 67.1436 7.02537 65.5833 5.66162C64.0231 4.29787 63.1465 2.44823 63.1465 0.5196C63.1465 2.44823 62.27 4.29787 60.7097 5.66162C59.1494 7.02537 57.0332 7.79151 54.8267 7.79151ZM25.7073 51.423C25.7073 45.6371 28.3369 40.0882 33.0178 35.9969C37.6986 31.9057 44.0471 29.6073 50.6668 29.6073C44.0471 29.6073 37.6986 27.3088 33.0178 23.2176C28.3369 19.1263 25.7073 13.5774 25.7073 7.79151C25.7073 13.5774 23.0776 19.1263 18.3968 23.2176C13.716 27.3088 7.36747 29.6073 0.747803 29.6073C7.36747 29.6073 13.716 31.9057 18.3968 35.9969C23.0776 40.0882 25.7073 45.6371 25.7073 51.423Z" fill="#FB8500"/>
</svg>
